<?xml version="1.0" encoding="UTF-8"?>
<svg width="11px" height="9px" viewBox="0 0 11 9" version="1.1" xmlns="http://www.w3.org/2000/svg" xmlns:xlink="http://www.w3.org/1999/xlink">
    <!-- Generator: Sketch 51.3 (57544) - http://www.bohemiancoding.com/sketch -->
    <title>Medium_Black</title>
    <desc>Created with Sketch.</desc>
    <defs>
        <polygon id="path-1" points="0 0 11 0 11 9 0 9"></polygon>
    </defs>
    <g id="Page-1" stroke="none" stroke-width="1" fill="none" fill-rule="evenodd">
        <g id="Medium_Black">
            <mask id="mask-2" fill="white">
                <use xlink:href="#path-1"></use>
            </mask>
            <g id="a"></g>
            <path d="M11,7.677 L11,8.992 L7.07,8.992 L7.07,7.673 L7.867,7.673 L7.867,1.831 C7.83077647,1.87184814 7.80594439,1.92151229 7.795,1.975 C7.185,4.254 6.573,6.532 5.967,8.813 C5.931,8.949 5.883,9.004 5.737,8.999 C5.37047417,8.98462769 5.00352583,8.98462769 4.637,8.999 C4.465,9.007 4.407,8.942 4.365,8.778 C3.771,6.506 3.171,4.237 2.571,1.967 C2.558,1.915 2.538,1.865 2.521,1.814 L2.485,1.824 L2.485,7.685 L3.288,7.685 L3.288,8.992 L5.55111512e-17,8.992 L5.55111512e-17,7.677 C0.126,7.677 0.252,7.681 0.377,7.679 C0.644,7.674 0.827,7.484 0.827,7.211 L0.827,1.82 C0.827,1.535 0.634,1.328 0.36,1.319 C0.24,1.314 0.12,1.316 0,1.315 L0,0 L4.125,0 L5.475,5.2 C5.5208027,5.15953784 5.5526516,5.1056397 5.566,5.046 C5.877,3.861 6.189,2.676 6.498,1.489 C6.628,0.994 6.75,0.496 6.875,2.22044605e-16 L11,0 L11,1.315 C10.874,1.316 10.748,1.314 10.623,1.319 C10.3667905,1.33035862 10.1667588,1.54461479 10.173,1.801 L10.173,7.23 C10.173,7.482 10.359,7.673 10.605,7.678 C10.737,7.681 10.868,7.678 11,7.677" id="Shape" fill="#FFFFFF" fill-rule="nonzero" mask="url(#mask-2)"></path>
        </g>
    </g>
</svg>