<?xml version="1.0" encoding="UTF-8"?>
<svg width="122px" height="198px" viewBox="0 0 122 198" version="1.1" xmlns="http://www.w3.org/2000/svg" xmlns:xlink="http://www.w3.org/1999/xlink">
    <!-- Generator: Sketch 51.3 (57544) - http://www.bohemiancoding.com/sketch -->
    <title>Slice 2</title>
    <desc>Created with Sketch.</desc>
    <defs>
        <path d="M3.71346032,0.112112081 C3.71346032,0.112112081 4.90749953,4.12318685 5.75327731,10.142918 C6.22236415,13.1496646 6.60616246,16.6616943 6.85492063,20.4232465 C7.16053782,24.1847988 7.21739683,28.1958735 7.28847059,32.2069483 C7.21739683,36.2242611 7.16764519,40.2353359 6.86202801,43.9968882 C6.61326984,47.7584404 6.22947152,51.2704701 5.76749206,54.2772166 C4.91460691,60.2969478 3.71346032,64.3080226 3.71346032,64.3080226 C3.71346032,64.3080226 2.50520635,60.2969478 1.65942857,54.2772166 C1.19744911,51.2704701 0.813650794,47.7584404 0.557785247,43.9968882 C0.259275444,40.2353359 0.20952381,36.2242611 0.138450047,32.2069483 C0.20952381,28.1958735 0.26638282,24.1847988 0.572,20.4232465 C0.827865546,16.6616943 1.21166387,13.1496646 1.66653595,10.142918 C2.51231373,4.12318685 3.71346032,0.112112081 3.71346032,0.112112081" id="path-1"></path>
        <linearGradient x1="50%" y1="-0.00291516859%" x2="50%" y2="100.002915%" id="linearGradient-3">
            <stop stop-color="#735593" offset="0%"></stop>
            <stop stop-color="#735593" offset="100%"></stop>
        </linearGradient>
        <path d="M3.73193791,0.287508648 C3.73193791,0.287508648 4.95085294,4.26316586 5.81425109,10.2297432 C6.29311057,13.2161233 6.68490468,16.697142 6.93884532,20.4254799 C7.25082952,24.1538179 7.30161765,28.1294751 7.38142756,32.1051323 C7.30161765,36.0807895 7.25808497,40.0564467 6.94610076,43.7909677 C6.69216013,47.5131226 6.30036601,51.0003243 5.82150654,53.9805214 C4.95810839,59.9470988 3.73193791,63.922756 3.73193791,63.922756 C3.73193791,63.922756 2.49851198,59.9470988 1.62785839,53.9805214 C1.15625436,51.0003243 0.771715686,47.5131226 0.510519608,43.7909677 C0.20579085,40.0564467 0.155002723,36.0807895 0.0824482571,32.1051323 C0.155002723,28.1294751 0.213046296,24.1538179 0.525030501,20.4254799 C0.78622658,16.697142 1.17076525,13.2161233 1.64236928,10.2297432 C2.50576743,4.26316586 3.73193791,0.287508648 3.73193791,0.287508648" id="path-4"></path>
        <linearGradient x1="49.9801193%" y1="0.00291488535%" x2="49.9801193%" y2="99.9990284%" id="linearGradient-6">
            <stop stop-color="#735593" offset="0%"></stop>
            <stop stop-color="#6F5795" offset="100%"></stop>
        </linearGradient>
        <path d="M4.08481645,0.488584902 C4.08481645,0.488584902 5.30373148,4.6984045 6.16712963,11.0162068 C6.64598911,14.1689622 7.03052778,17.8563954 7.29172386,21.8080947 C7.59645261,25.7536482 7.65449619,29.9634678 7.7343061,34.1732874 C7.65449619,38.3892527 7.61096351,42.5929266 7.2989793,46.5446259 C7.04503867,50.4901794 6.65324455,54.1776127 6.17438508,57.3365138 C5.31098693,63.654316 4.08481645,67.8641356 4.08481645,67.8641356 C4.08481645,67.8641356 2.85139052,63.654316 1.98073693,57.3365138 C1.5091329,54.1776127 1.12459423,50.4901794 0.863398148,46.5446259 C0.551413943,42.5929266 0.507881264,38.3892527 0.435326797,34.1732874 C0.507881264,29.9634678 0.565924837,25.7536482 0.870653595,21.8080947 C1.13910512,17.8563954 1.52364379,14.1689622 1.98799237,11.0162068 C2.85864597,4.6984045 4.08481645,0.488584902 4.08481645,0.488584902" id="path-7"></path>
        <linearGradient x1="49.9602386%" y1="-0.000912159081%" x2="49.9602386%" y2="99.9972635%" id="linearGradient-9">
            <stop stop-color="#6C5996" offset="0%"></stop>
            <stop stop-color="#695C99" offset="100%"></stop>
        </linearGradient>
        <path d="M3.77810893,0.693485754 C3.77810893,0.693485754 4.99702397,5.70016481 5.86042211,13.2132701 C6.33202614,16.966736 6.72382026,21.3498953 6.98501634,26.0417277 C7.2897451,30.7397335 7.34778867,35.7464126 7.42759858,40.7469182 C7.34778867,45.7597707 7.29700054,50.7664497 6.99227179,55.4582821 C6.73833115,60.1501145 6.34653704,64.5332738 5.86767756,68.2867397 C5.00427941,75.799845 3.77810893,80.806524 3.77810893,80.806524 C3.77810893,80.806524 2.54468301,75.799845 1.67402941,68.2867397 C1.20242538,64.5332738 0.810631264,60.1501145 0.556690632,55.4582821 C0.244706427,50.7664497 0.201173747,45.7597707 0.121363834,40.7469182 C0.201173747,35.7464126 0.25921732,30.7397335 0.563946078,26.0417277 C0.825142157,21.3498953 1.21693627,16.966736 1.68128486,13.2132701 C2.55193845,5.70016481 3.77810893,0.693485754 3.77810893,0.693485754" id="path-10"></path>
        <linearGradient x1="49.9900695%" y1="0.00385297064%" x2="49.9900695%" y2="99.9992294%" id="linearGradient-12">
            <stop stop-color="#65609B" offset="0%"></stop>
            <stop stop-color="#62639E" offset="100%"></stop>
        </linearGradient>
        <path d="M4.13098747,0.0767885672 C4.13098747,0.0767885672 5.34264706,6.06425817 6.21330065,15.0424046 C6.68490468,19.5314779 7.0766988,24.7728072 7.33063943,30.3810908 C7.64262364,35.9954903 7.70066721,41.9829599 7.77322168,47.9643136 C7.70066721,53.9578991 7.64987908,59.9392528 7.34515033,65.5536523 C7.08395425,71.1680518 6.69216013,76.4032652 6.2205561,80.8923385 C5.35715795,89.8766008 4.13098747,95.8579545 4.13098747,95.8579545 C4.13098747,95.8579545 2.89756155,89.8766008 2.02690795,80.8923385 C1.55530392,76.4032652 1.1635098,71.1680518 0.909569172,65.5536523 C0.597584967,59.9392528 0.554052288,53.9578991 0.474242375,47.9643136 C0.554052288,41.9829599 0.612095861,35.9954903 0.916824619,30.3810908 C1.1780207,24.7728072 1.56981481,19.5314779 2.0341634,15.0424046 C2.89756155,6.06425817 4.13098747,0.0767885672 4.13098747,0.0767885672" id="path-13"></path>
        <linearGradient x1="50.0298211%" y1="0.00063852883%" x2="50.0298211%" y2="100.001916%" id="linearGradient-15">
            <stop stop-color="#61649E" offset="0%"></stop>
            <stop stop-color="#5B6CA4" offset="100%"></stop>
        </linearGradient>
        <path d="M4.38525117,0.100581706 C4.38525117,0.100581706 5.57929038,6.87512684 6.43217554,17.0338791 C6.894155,22.1101899 7.27795331,28.0386832 7.52671148,34.3840716 C7.83232866,40.7355909 7.88918768,47.510136 7.96026144,54.2785503 C7.88918768,61.0530954 7.83943604,67.8276406 7.54092624,74.173029 C7.28506069,80.5245482 6.90126237,86.4530416 6.43928291,91.5293523 C5.58639776,101.688105 4.38525117,108.46265 4.38525117,108.46265 C4.38525117,108.46265 3.18410458,101.688105 2.33121942,91.5293523 C1.86923996,86.4530416 1.48544164,80.5245482 1.23668347,74.173029 C0.931066293,67.8276406 0.881314659,61.0530954 0.810240896,54.2785503 C0.881314659,47.510136 0.938173669,40.7355909 1.24379085,34.3840716 C1.4996564,28.0386832 1.88345472,22.1101899 2.3383268,17.0338791 C3.18410458,6.87512684 4.38525117,0.100581706 4.38525117,0.100581706" id="path-16"></path>
        <linearGradient x1="50.0099404%" y1="0.000565770863%" x2="50.0099404%" y2="99.9994342%" id="linearGradient-18">
            <stop stop-color="#5970A8" offset="0%"></stop>
            <stop stop-color="#547AAF" offset="100%"></stop>
        </linearGradient>
    </defs>
    <g id="Page-1" stroke="none" stroke-width="1" fill="none" fill-rule="evenodd">
        <g id="Group-2">
            <g id="Group" transform="translate(13.000000, 27.000000)">
                <g id="Group-6" transform="translate(0.000000, 34.000000)">
                    <mask id="mask-2" fill="white">
                        <use xlink:href="#path-1"></use>
                    </mask>
                    <g id="Clip-5"></g>
                    <path d="M3.71346032,0.112112081 C3.71346032,0.112112081 4.90749953,4.12318685 5.75327731,10.142918 C6.22236415,13.1496646 6.60616246,16.6616943 6.85492063,20.4232465 C7.16053782,24.1847988 7.21739683,28.1958735 7.28847059,32.2069483 C7.21739683,36.2242611 7.16764519,40.2353359 6.86202801,43.9968882 C6.61326984,47.7584404 6.22947152,51.2704701 5.76749206,54.2772166 C4.91460691,60.2969478 3.71346032,64.3080226 3.71346032,64.3080226 C3.71346032,64.3080226 2.50520635,60.2969478 1.65942857,54.2772166 C1.19744911,51.2704701 0.813650794,47.7584404 0.557785247,43.9968882 C0.259275444,40.2353359 0.20952381,36.2242611 0.138450047,32.2069483 C0.20952381,28.1958735 0.26638282,24.1847988 0.572,20.4232465 C0.827865546,16.6616943 1.21166387,13.1496646 1.66653595,10.142918 C2.51231373,4.12318685 3.71346032,0.112112081 3.71346032,0.112112081" id="Fill-4" fill="url(#linearGradient-3)" mask="url(#mask-2)"></path>
                </g>
                <g id="Group-9" transform="translate(19.000000, 24.000000)">
                    <mask id="mask-5" fill="white">
                        <use xlink:href="#path-4"></use>
                    </mask>
                    <g id="Clip-8"></g>
                    <path d="M3.73193791,0.287508648 C3.73193791,0.287508648 4.95085294,4.26316586 5.81425109,10.2297432 C6.29311057,13.2161233 6.68490468,16.697142 6.93884532,20.4254799 C7.25082952,24.1538179 7.30161765,28.1294751 7.38142756,32.1051323 C7.30161765,36.0807895 7.25808497,40.0564467 6.94610076,43.7909677 C6.69216013,47.5131226 6.30036601,51.0003243 5.82150654,53.9805214 C4.95810839,59.9470988 3.73193791,63.922756 3.73193791,63.922756 C3.73193791,63.922756 2.49851198,59.9470988 1.62785839,53.9805214 C1.15625436,51.0003243 0.771715686,47.5131226 0.510519608,43.7909677 C0.20579085,40.0564467 0.155002723,36.0807895 0.0824482571,32.1051323 C0.155002723,28.1294751 0.213046296,24.1538179 0.525030501,20.4254799 C0.78622658,16.697142 1.17076525,13.2161233 1.64236928,10.2297432 C2.50576743,4.26316586 3.73193791,0.287508648 3.73193791,0.287508648" id="Fill-7" fill="url(#linearGradient-6)" mask="url(#mask-5)"></path>
                </g>
                <g id="Group-12" transform="translate(37.000000, 16.000000)">
                    <mask id="mask-8" fill="white">
                        <use xlink:href="#path-7"></use>
                    </mask>
                    <g id="Clip-11"></g>
                    <path d="M4.08481645,0.488584902 C4.08481645,0.488584902 5.30373148,4.6984045 6.16712963,11.0162068 C6.64598911,14.1689622 7.03052778,17.8563954 7.29172386,21.8080947 C7.59645261,25.7536482 7.65449619,29.9634678 7.7343061,34.1732874 C7.65449619,38.3892527 7.61096351,42.5929266 7.2989793,46.5446259 C7.04503867,50.4901794 6.65324455,54.1776127 6.17438508,57.3365138 C5.31098693,63.654316 4.08481645,67.8641356 4.08481645,67.8641356 C4.08481645,67.8641356 2.85139052,63.654316 1.98073693,57.3365138 C1.5091329,54.1776127 1.12459423,50.4901794 0.863398148,46.5446259 C0.551413943,42.5929266 0.507881264,38.3892527 0.435326797,34.1732874 C0.507881264,29.9634678 0.565924837,25.7536482 0.870653595,21.8080947 C1.13910512,17.8563954 1.52364379,14.1689622 1.98799237,11.0162068 C2.85864597,4.6984045 4.08481645,0.488584902 4.08481645,0.488584902" id="Fill-10" fill="url(#linearGradient-9)" mask="url(#mask-8)"></path>
                </g>
                <g id="Group-15" transform="translate(57.000000, 8.000000)">
                    <mask id="mask-11" fill="white">
                        <use xlink:href="#path-10"></use>
                    </mask>
                    <g id="Clip-14"></g>
                    <path d="M3.77810893,0.693485754 C3.77810893,0.693485754 4.99702397,5.70016481 5.86042211,13.2132701 C6.33202614,16.966736 6.72382026,21.3498953 6.98501634,26.0417277 C7.2897451,30.7397335 7.34778867,35.7464126 7.42759858,40.7469182 C7.34778867,45.7597707 7.29700054,50.7664497 6.99227179,55.4582821 C6.73833115,60.1501145 6.34653704,64.5332738 5.86767756,68.2867397 C5.00427941,75.799845 3.77810893,80.806524 3.77810893,80.806524 C3.77810893,80.806524 2.54468301,75.799845 1.67402941,68.2867397 C1.20242538,64.5332738 0.810631264,60.1501145 0.556690632,55.4582821 C0.244706427,50.7664497 0.201173747,45.7597707 0.121363834,40.7469182 C0.201173747,35.7464126 0.25921732,30.7397335 0.563946078,26.0417277 C0.825142157,21.3498953 1.21693627,16.966736 1.68128486,13.2132701 C2.55193845,5.70016481 3.77810893,0.693485754 3.77810893,0.693485754" id="Fill-13" fill="url(#linearGradient-12)" mask="url(#mask-11)"></path>
                </g>
                <g id="Group-18" transform="translate(75.000000, 0.000000)">
                    <mask id="mask-14" fill="white">
                        <use xlink:href="#path-13"></use>
                    </mask>
                    <g id="Clip-17"></g>
                    <path d="M4.13098747,0.0767885672 C4.13098747,0.0767885672 5.34264706,6.06425817 6.21330065,15.0424046 C6.68490468,19.5314779 7.0766988,24.7728072 7.33063943,30.3810908 C7.64262364,35.9954903 7.70066721,41.9829599 7.77322168,47.9643136 C7.70066721,53.9578991 7.64987908,59.9392528 7.34515033,65.5536523 C7.08395425,71.1680518 6.69216013,76.4032652 6.2205561,80.8923385 C5.35715795,89.8766008 4.13098747,95.8579545 4.13098747,95.8579545 C4.13098747,95.8579545 2.89756155,89.8766008 2.02690795,80.8923385 C1.55530392,76.4032652 1.1635098,71.1680518 0.909569172,65.5536523 C0.597584967,59.9392528 0.554052288,53.9578991 0.474242375,47.9643136 C0.554052288,41.9829599 0.612095861,35.9954903 0.916824619,30.3810908 C1.1780207,24.7728072 1.56981481,19.5314779 2.0341634,15.0424046 C2.89756155,6.06425817 4.13098747,0.0767885672 4.13098747,0.0767885672" id="Fill-16" fill="url(#linearGradient-15)" mask="url(#mask-14)"></path>
                </g>
                <g id="Group-21" transform="translate(93.000000, 0.000000)">
                    <mask id="mask-17" fill="white">
                        <use xlink:href="#path-16"></use>
                    </mask>
                    <g id="Clip-20"></g>
                    <path d="M4.38525117,0.100581706 C4.38525117,0.100581706 5.57929038,6.87512684 6.43217554,17.0338791 C6.894155,22.1101899 7.27795331,28.0386832 7.52671148,34.3840716 C7.83232866,40.7355909 7.88918768,47.510136 7.96026144,54.2785503 C7.88918768,61.0530954 7.83943604,67.8276406 7.54092624,74.173029 C7.28506069,80.5245482 6.90126237,86.4530416 6.43928291,91.5293523 C5.58639776,101.688105 4.38525117,108.46265 4.38525117,108.46265 C4.38525117,108.46265 3.18410458,101.688105 2.33121942,91.5293523 C1.86923996,86.4530416 1.48544164,80.5245482 1.23668347,74.173029 C0.931066293,67.8276406 0.881314659,61.0530954 0.810240896,54.2785503 C0.881314659,47.510136 0.938173669,40.7355909 1.24379085,34.3840716 C1.4996564,28.0386832 1.88345472,22.1101899 2.3383268,17.0338791 C3.18410458,6.87512684 4.38525117,0.100581706 4.38525117,0.100581706" id="Fill-19" fill="url(#linearGradient-18)" mask="url(#mask-17)"></path>
                </g>
            </g>
        </g>
    </g>
</svg>