<?xml version="1.0" encoding="UTF-8"?>
<svg width="288px" height="171px" viewBox="0 0 288 171" version="1.1" xmlns="http://www.w3.org/2000/svg" xmlns:xlink="http://www.w3.org/1999/xlink">
    <!-- Generator: Sketch 51.3 (57544) - http://www.bohemiancoding.com/sketch -->
    <title>Group</title>
    <desc>Created with Sketch.</desc>
    <defs>
        <path d="M3.71346032,0.112112081 C3.71346032,0.112112081 4.90749953,4.12318685 5.75327731,10.142918 C6.22236415,13.1496646 6.60616246,16.6616943 6.85492063,20.4232465 C7.16053782,24.1847988 7.21739683,28.1958735 7.28847059,32.2069483 C7.21739683,36.2242611 7.16764519,40.2353359 6.86202801,43.9968882 C6.61326984,47.7584404 6.22947152,51.2704701 5.76749206,54.2772166 C4.91460691,60.2969478 3.71346032,64.3080226 3.71346032,64.3080226 C3.71346032,64.3080226 2.50520635,60.2969478 1.65942857,54.2772166 C1.19744911,51.2704701 0.813650794,47.7584404 0.557785247,43.9968882 C0.259275444,40.2353359 0.20952381,36.2242611 0.138450047,32.2069483 C0.20952381,28.1958735 0.26638282,24.1847988 0.572,20.4232465 C0.827865546,16.6616943 1.21166387,13.1496646 1.66653595,10.142918 C2.51231373,4.12318685 3.71346032,0.112112081 3.71346032,0.112112081" id="path-1"></path>
        <linearGradient x1="50%" y1="-0.00291516859%" x2="50%" y2="100.002915%" id="linearGradient-3">
            <stop stop-color="#735593" offset="0%"></stop>
            <stop stop-color="#735593" offset="100%"></stop>
        </linearGradient>
        <path d="M3.73193791,0.287508648 C3.73193791,0.287508648 4.95085294,4.26316586 5.81425109,10.2297432 C6.29311057,13.2161233 6.68490468,16.697142 6.93884532,20.4254799 C7.25082952,24.1538179 7.30161765,28.1294751 7.38142756,32.1051323 C7.30161765,36.0807895 7.25808497,40.0564467 6.94610076,43.7909677 C6.69216013,47.5131226 6.30036601,51.0003243 5.82150654,53.9805214 C4.95810839,59.9470988 3.73193791,63.922756 3.73193791,63.922756 C3.73193791,63.922756 2.49851198,59.9470988 1.62785839,53.9805214 C1.15625436,51.0003243 0.771715686,47.5131226 0.510519608,43.7909677 C0.20579085,40.0564467 0.155002723,36.0807895 0.0824482571,32.1051323 C0.155002723,28.1294751 0.213046296,24.1538179 0.525030501,20.4254799 C0.78622658,16.697142 1.17076525,13.2161233 1.64236928,10.2297432 C2.50576743,4.26316586 3.73193791,0.287508648 3.73193791,0.287508648" id="path-4"></path>
        <linearGradient x1="49.9801193%" y1="0.00291488535%" x2="49.9801193%" y2="99.9990284%" id="linearGradient-6">
            <stop stop-color="#735593" offset="0%"></stop>
            <stop stop-color="#6F5795" offset="100%"></stop>
        </linearGradient>
        <path d="M4.08481645,0.488584902 C4.08481645,0.488584902 5.30373148,4.6984045 6.16712963,11.0162068 C6.64598911,14.1689622 7.03052778,17.8563954 7.29172386,21.8080947 C7.59645261,25.7536482 7.65449619,29.9634678 7.7343061,34.1732874 C7.65449619,38.3892527 7.61096351,42.5929266 7.2989793,46.5446259 C7.04503867,50.4901794 6.65324455,54.1776127 6.17438508,57.3365138 C5.31098693,63.654316 4.08481645,67.8641356 4.08481645,67.8641356 C4.08481645,67.8641356 2.85139052,63.654316 1.98073693,57.3365138 C1.5091329,54.1776127 1.12459423,50.4901794 0.863398148,46.5446259 C0.551413943,42.5929266 0.507881264,38.3892527 0.435326797,34.1732874 C0.507881264,29.9634678 0.565924837,25.7536482 0.870653595,21.8080947 C1.13910512,17.8563954 1.52364379,14.1689622 1.98799237,11.0162068 C2.85864597,4.6984045 4.08481645,0.488584902 4.08481645,0.488584902" id="path-7"></path>
        <linearGradient x1="49.9602386%" y1="-0.000912159081%" x2="49.9602386%" y2="99.9972635%" id="linearGradient-9">
            <stop stop-color="#6C5996" offset="0%"></stop>
            <stop stop-color="#695C99" offset="100%"></stop>
        </linearGradient>
        <path d="M3.77810893,0.693485754 C3.77810893,0.693485754 4.99702397,5.70016481 5.86042211,13.2132701 C6.33202614,16.966736 6.72382026,21.3498953 6.98501634,26.0417277 C7.2897451,30.7397335 7.34778867,35.7464126 7.42759858,40.7469182 C7.34778867,45.7597707 7.29700054,50.7664497 6.99227179,55.4582821 C6.73833115,60.1501145 6.34653704,64.5332738 5.86767756,68.2867397 C5.00427941,75.799845 3.77810893,80.806524 3.77810893,80.806524 C3.77810893,80.806524 2.54468301,75.799845 1.67402941,68.2867397 C1.20242538,64.5332738 0.810631264,60.1501145 0.556690632,55.4582821 C0.244706427,50.7664497 0.201173747,45.7597707 0.121363834,40.7469182 C0.201173747,35.7464126 0.25921732,30.7397335 0.563946078,26.0417277 C0.825142157,21.3498953 1.21693627,16.966736 1.68128486,13.2132701 C2.55193845,5.70016481 3.77810893,0.693485754 3.77810893,0.693485754" id="path-10"></path>
        <linearGradient x1="49.9900695%" y1="0.00385297064%" x2="49.9900695%" y2="99.9992294%" id="linearGradient-12">
            <stop stop-color="#65609B" offset="0%"></stop>
            <stop stop-color="#62639E" offset="100%"></stop>
        </linearGradient>
        <path d="M4.13098747,0.0767885672 C4.13098747,0.0767885672 5.34264706,6.06425817 6.21330065,15.0424046 C6.68490468,19.5314779 7.0766988,24.7728072 7.33063943,30.3810908 C7.64262364,35.9954903 7.70066721,41.9829599 7.77322168,47.9643136 C7.70066721,53.9578991 7.64987908,59.9392528 7.34515033,65.5536523 C7.08395425,71.1680518 6.69216013,76.4032652 6.2205561,80.8923385 C5.35715795,89.8766008 4.13098747,95.8579545 4.13098747,95.8579545 C4.13098747,95.8579545 2.89756155,89.8766008 2.02690795,80.8923385 C1.55530392,76.4032652 1.1635098,71.1680518 0.909569172,65.5536523 C0.597584967,59.9392528 0.554052288,53.9578991 0.474242375,47.9643136 C0.554052288,41.9829599 0.612095861,35.9954903 0.916824619,30.3810908 C1.1780207,24.7728072 1.56981481,19.5314779 2.0341634,15.0424046 C2.89756155,6.06425817 4.13098747,0.0767885672 4.13098747,0.0767885672" id="path-13"></path>
        <linearGradient x1="50.0298211%" y1="0.00063852883%" x2="50.0298211%" y2="100.001916%" id="linearGradient-15">
            <stop stop-color="#61649E" offset="0%"></stop>
            <stop stop-color="#5B6CA4" offset="100%"></stop>
        </linearGradient>
        <path d="M4.38525117,0.100581706 C4.38525117,0.100581706 5.57929038,6.87512684 6.43217554,17.0338791 C6.894155,22.1101899 7.27795331,28.0386832 7.52671148,34.3840716 C7.83232866,40.7355909 7.88918768,47.510136 7.96026144,54.2785503 C7.88918768,61.0530954 7.83943604,67.8276406 7.54092624,74.173029 C7.28506069,80.5245482 6.90126237,86.4530416 6.43928291,91.5293523 C5.58639776,101.688105 4.38525117,108.46265 4.38525117,108.46265 C4.38525117,108.46265 3.18410458,101.688105 2.33121942,91.5293523 C1.86923996,86.4530416 1.48544164,80.5245482 1.23668347,74.173029 C0.931066293,67.8276406 0.881314659,61.0530954 0.810240896,54.2785503 C0.881314659,47.510136 0.938173669,40.7355909 1.24379085,34.3840716 C1.4996564,28.0386832 1.88345472,22.1101899 2.3383268,17.0338791 C3.18410458,6.87512684 4.38525117,0.100581706 4.38525117,0.100581706" id="path-16"></path>
        <linearGradient x1="50.0099404%" y1="0.000565770863%" x2="50.0099404%" y2="99.9994342%" id="linearGradient-18">
            <stop stop-color="#5970A8" offset="0%"></stop>
            <stop stop-color="#547AAF" offset="100%"></stop>
        </linearGradient>
    </defs>
    <g id="Page-1" stroke="none" stroke-width="1" fill="none" fill-rule="evenodd">
        <g id="Group-2">
            <g id="Group">
                <g id="Group-6" transform="translate(0.000000, 34.000000)">
                    <mask id="mask-2" fill="white">
                        <use xlink:href="#path-1"></use>
                    </mask>
                    <g id="Clip-5"></g>
                    <path d="M3.71346032,0.112112081 C3.71346032,0.112112081 4.90749953,4.12318685 5.75327731,10.142918 C6.22236415,13.1496646 6.60616246,16.6616943 6.85492063,20.4232465 C7.16053782,24.1847988 7.21739683,28.1958735 7.28847059,32.2069483 C7.21739683,36.2242611 7.16764519,40.2353359 6.86202801,43.9968882 C6.61326984,47.7584404 6.22947152,51.2704701 5.76749206,54.2772166 C4.91460691,60.2969478 3.71346032,64.3080226 3.71346032,64.3080226 C3.71346032,64.3080226 2.50520635,60.2969478 1.65942857,54.2772166 C1.19744911,51.2704701 0.813650794,47.7584404 0.557785247,43.9968882 C0.259275444,40.2353359 0.20952381,36.2242611 0.138450047,32.2069483 C0.20952381,28.1958735 0.26638282,24.1847988 0.572,20.4232465 C0.827865546,16.6616943 1.21166387,13.1496646 1.66653595,10.142918 C2.51231373,4.12318685 3.71346032,0.112112081 3.71346032,0.112112081" id="Fill-4" fill="url(#linearGradient-3)" mask="url(#mask-2)"></path>
                </g>
                <g id="Group-9" transform="translate(19.000000, 24.000000)">
                    <mask id="mask-5" fill="white">
                        <use xlink:href="#path-4"></use>
                    </mask>
                    <g id="Clip-8"></g>
                    <path d="M3.73193791,0.287508648 C3.73193791,0.287508648 4.95085294,4.26316586 5.81425109,10.2297432 C6.29311057,13.2161233 6.68490468,16.697142 6.93884532,20.4254799 C7.25082952,24.1538179 7.30161765,28.1294751 7.38142756,32.1051323 C7.30161765,36.0807895 7.25808497,40.0564467 6.94610076,43.7909677 C6.69216013,47.5131226 6.30036601,51.0003243 5.82150654,53.9805214 C4.95810839,59.9470988 3.73193791,63.922756 3.73193791,63.922756 C3.73193791,63.922756 2.49851198,59.9470988 1.62785839,53.9805214 C1.15625436,51.0003243 0.771715686,47.5131226 0.510519608,43.7909677 C0.20579085,40.0564467 0.155002723,36.0807895 0.0824482571,32.1051323 C0.155002723,28.1294751 0.213046296,24.1538179 0.525030501,20.4254799 C0.78622658,16.697142 1.17076525,13.2161233 1.64236928,10.2297432 C2.50576743,4.26316586 3.73193791,0.287508648 3.73193791,0.287508648" id="Fill-7" fill="url(#linearGradient-6)" mask="url(#mask-5)"></path>
                </g>
                <g id="Group-12" transform="translate(37.000000, 16.000000)">
                    <mask id="mask-8" fill="white">
                        <use xlink:href="#path-7"></use>
                    </mask>
                    <g id="Clip-11"></g>
                    <path d="M4.08481645,0.488584902 C4.08481645,0.488584902 5.30373148,4.6984045 6.16712963,11.0162068 C6.64598911,14.1689622 7.03052778,17.8563954 7.29172386,21.8080947 C7.59645261,25.7536482 7.65449619,29.9634678 7.7343061,34.1732874 C7.65449619,38.3892527 7.61096351,42.5929266 7.2989793,46.5446259 C7.04503867,50.4901794 6.65324455,54.1776127 6.17438508,57.3365138 C5.31098693,63.654316 4.08481645,67.8641356 4.08481645,67.8641356 C4.08481645,67.8641356 2.85139052,63.654316 1.98073693,57.3365138 C1.5091329,54.1776127 1.12459423,50.4901794 0.863398148,46.5446259 C0.551413943,42.5929266 0.507881264,38.3892527 0.435326797,34.1732874 C0.507881264,29.9634678 0.565924837,25.7536482 0.870653595,21.8080947 C1.13910512,17.8563954 1.52364379,14.1689622 1.98799237,11.0162068 C2.85864597,4.6984045 4.08481645,0.488584902 4.08481645,0.488584902" id="Fill-10" fill="url(#linearGradient-9)" mask="url(#mask-8)"></path>
                </g>
                <g id="Group-15" transform="translate(57.000000, 8.000000)">
                    <mask id="mask-11" fill="white">
                        <use xlink:href="#path-10"></use>
                    </mask>
                    <g id="Clip-14"></g>
                    <path d="M3.77810893,0.693485754 C3.77810893,0.693485754 4.99702397,5.70016481 5.86042211,13.2132701 C6.33202614,16.966736 6.72382026,21.3498953 6.98501634,26.0417277 C7.2897451,30.7397335 7.34778867,35.7464126 7.42759858,40.7469182 C7.34778867,45.7597707 7.29700054,50.7664497 6.99227179,55.4582821 C6.73833115,60.1501145 6.34653704,64.5332738 5.86767756,68.2867397 C5.00427941,75.799845 3.77810893,80.806524 3.77810893,80.806524 C3.77810893,80.806524 2.54468301,75.799845 1.67402941,68.2867397 C1.20242538,64.5332738 0.810631264,60.1501145 0.556690632,55.4582821 C0.244706427,50.7664497 0.201173747,45.7597707 0.121363834,40.7469182 C0.201173747,35.7464126 0.25921732,30.7397335 0.563946078,26.0417277 C0.825142157,21.3498953 1.21693627,16.966736 1.68128486,13.2132701 C2.55193845,5.70016481 3.77810893,0.693485754 3.77810893,0.693485754" id="Fill-13" fill="url(#linearGradient-12)" mask="url(#mask-11)"></path>
                </g>
                <g id="Group-18" transform="translate(75.000000, 0.000000)">
                    <mask id="mask-14" fill="white">
                        <use xlink:href="#path-13"></use>
                    </mask>
                    <g id="Clip-17"></g>
                    <path d="M4.13098747,0.0767885672 C4.13098747,0.0767885672 5.34264706,6.06425817 6.21330065,15.0424046 C6.68490468,19.5314779 7.0766988,24.7728072 7.33063943,30.3810908 C7.64262364,35.9954903 7.70066721,41.9829599 7.77322168,47.9643136 C7.70066721,53.9578991 7.64987908,59.9392528 7.34515033,65.5536523 C7.08395425,71.1680518 6.69216013,76.4032652 6.2205561,80.8923385 C5.35715795,89.8766008 4.13098747,95.8579545 4.13098747,95.8579545 C4.13098747,95.8579545 2.89756155,89.8766008 2.02690795,80.8923385 C1.55530392,76.4032652 1.1635098,71.1680518 0.909569172,65.5536523 C0.597584967,59.9392528 0.554052288,53.9578991 0.474242375,47.9643136 C0.554052288,41.9829599 0.612095861,35.9954903 0.916824619,30.3810908 C1.1780207,24.7728072 1.56981481,19.5314779 2.0341634,15.0424046 C2.89756155,6.06425817 4.13098747,0.0767885672 4.13098747,0.0767885672" id="Fill-16" fill="url(#linearGradient-15)" mask="url(#mask-14)"></path>
                </g>
                <g id="Group-21" transform="translate(93.000000, 0.000000)">
                    <mask id="mask-17" fill="white">
                        <use xlink:href="#path-16"></use>
                    </mask>
                    <g id="Clip-20"></g>
                    <path d="M4.38525117,0.100581706 C4.38525117,0.100581706 5.57929038,6.87512684 6.43217554,17.0338791 C6.894155,22.1101899 7.27795331,28.0386832 7.52671148,34.3840716 C7.83232866,40.7355909 7.88918768,47.510136 7.96026144,54.2785503 C7.88918768,61.0530954 7.83943604,67.8276406 7.54092624,74.173029 C7.28506069,80.5245482 6.90126237,86.4530416 6.43928291,91.5293523 C5.58639776,101.688105 4.38525117,108.46265 4.38525117,108.46265 C4.38525117,108.46265 3.18410458,101.688105 2.33121942,91.5293523 C1.86923996,86.4530416 1.48544164,80.5245482 1.23668347,74.173029 C0.931066293,67.8276406 0.881314659,61.0530954 0.810240896,54.2785503 C0.881314659,47.510136 0.938173669,40.7355909 1.24379085,34.3840716 C1.4996564,28.0386832 1.88345472,22.1101899 2.3383268,17.0338791 C3.18410458,6.87512684 4.38525117,0.100581706 4.38525117,0.100581706" id="Fill-19" fill="url(#linearGradient-18)" mask="url(#mask-17)"></path>
                </g>
                <path d="M116,0 C116,0 117.001988,7.24656886 117.71173,18.122522 C118.105368,23.5635484 118.427435,29.9073461 118.636183,36.7025293 C118.892644,43.5038124 118.940358,50.7503812 119,57.9969501 C118.940358,65.2496188 118.898608,72.5022874 118.642147,79.2974707 C118.4334,86.0926539 118.111332,92.4425514 117.723658,97.877478 C117.007952,108.753431 116,116 116,116 C116,116 114.986083,108.753431 114.270378,97.877478 C113.888668,92.4425514 113.5666,86.0926539 113.351889,79.2974707 C113.101392,72.5022874 113.059642,65.2496188 113,57.9969501 C113.059642,50.7503812 113.107356,43.5038124 113.363817,36.7025293 C113.578529,29.9073461 113.900596,23.5635484 114.282306,18.122522 C114.992048,7.24656886 116,0 116,0" id="Fill-22" fill="#5872A9"></path>
                <path d="M264.002979,16 C264.002979,16 265.003972,22.5578687 265.713009,32.4008469 C266.100298,37.3285109 266.422046,43.0712773 266.636544,49.2215949 C266.886792,55.3719125 266.934459,61.9359562 267,68.493825 C266.934459,75.0578687 266.892751,81.6219125 266.642502,87.7722301 C266.428004,93.9287227 266.112214,99.6714891 265.718967,104.592978 C265.00993,114.435956 264.002979,121 264.002979,121 C264.002979,121 262.99007,114.435956 262.275074,104.592978 C261.887786,99.6714891 261.566038,93.9287227 261.357498,87.7722301 C261.101291,81.6219125 261.065541,75.0578687 261,68.493825 C261.065541,61.9359562 261.113208,55.3719125 261.363456,49.2215949 C261.577954,43.0712773 261.899702,37.3285109 262.281033,32.4008469 C262.996028,22.5578687 264.002979,16 264.002979,16" id="Fill-23" fill="#35B1DA"></path>
                <path d="M285.005964,8 C285.005964,8 286.001988,14.0007662 286.717694,22.9988507 C287.105368,27.497893 287.427435,32.750862 287.636183,38.3777295 C287.892644,44.0045971 287.940358,49.9992338 288,56 C287.940358,62.0007662 287.898608,68.0015324 287.648111,73.6222705 C287.4334,79.249138 287.117296,84.502107 286.723658,89.0011493 C286.013917,97.9992338 285.005964,104 285.005964,104 C285.005964,104 283.992048,97.9992338 283.276342,89.0011493 C282.888668,84.502107 282.5666,79.249138 282.357853,73.6222705 C282.101392,68.0015324 282.065606,62.0007662 282,56 C282.065606,49.9992338 282.11332,44.0045971 282.363817,38.3777295 C282.578529,32.750862 282.900596,27.497893 283.282306,22.9988507 C283.992048,14.0007662 285.005964,8 285.005964,8" id="Fill-24" fill="#34B2DB"></path>
                <path d="M136,8 C136,8 137.001988,15.6277109 137.71173,27.0661791 C138.105368,32.7792168 138.421471,39.4588857 138.636183,46.603281 C138.88668,53.7538727 138.934394,61.3753873 139,68.9969018 C138.934394,76.6246127 138.898608,84.2523236 138.642147,91.396719 C138.4334,98.5473107 138.111332,105.220783 137.717694,110.940017 C137.007952,122.378485 136,130 136,130 C136,130 134.986083,122.378485 134.270378,110.940017 C133.882704,105.220783 133.5666,98.5473107 133.351889,91.396719 C133.101392,84.2523236 133.059642,76.6246127 133,68.9969018 C133.059642,61.3753873 133.107356,53.7538727 133.363817,46.603281 C133.578529,39.4588857 133.894632,32.7792168 134.282306,27.0661791 C134.992048,15.6277109 136,8 136,8" id="Fill-25" fill="#527EB2"></path>
                <path d="M246,25 C246,25 247.001988,31.7519095 247.71173,41.8767185 C248.105368,46.9360679 248.421471,52.8447525 248.636183,59.1750495 C248.88668,65.4992362 248.934394,72.2511457 249,78.9969448 C248.934394,85.7488543 248.898608,92.5007638 248.642147,98.8310608 C248.4334,105.155248 248.111332,111.063932 247.717694,116.129392 C247.007952,126.254201 246,133 246,133 C246,133 244.986083,126.254201 244.270378,116.129392 C243.882704,111.063932 243.5666,105.155248 243.351889,98.8310608 C243.101392,92.5007638 243.059642,85.7488543 243,78.9969448 C243.059642,72.2511457 243.107356,65.4992362 243.363817,59.1750495 C243.578529,52.8447525 243.894632,46.9360679 244.282306,41.8767185 C244.992048,31.7519095 246,25 246,25" id="Fill-26" fill="#37AFD8"></path>
                <path d="M153.002979,21 C153.002979,21 154.003972,28.8719057 154.713009,40.6859528 C155.100298,46.5960707 155.422046,53.4839882 155.636544,60.8669941 C155.886792,68.25 155.934459,76.1219057 156,84 C155.934459,91.8780943 155.898709,99.75 155.642502,107.133006 C155.433962,114.516012 155.112214,121.403929 154.718967,127.314047 C154.00993,139.121906 153.002979,147 153.002979,147 C153.002979,147 151.99007,139.121906 151.275074,127.314047 C150.887786,121.403929 150.571996,114.516012 150.357498,107.133006 C150.101291,99.75 150.065541,91.8780943 150,84 C150.065541,76.1219057 150.113208,68.25 150.363456,60.8669941 C150.577954,53.4839882 150.899702,46.5960707 151.281033,40.6859528 C151.996028,28.8719057 153.002979,21 153.002979,21" id="Fill-27" fill="#4A8BBD"></path>
                <path d="M227,29 C227,29 228.001988,36.6219017 228.71173,48.0609508 C229.105368,53.7804754 229.427435,60.4480902 229.636183,67.5990451 C229.892644,74.75 229.934394,82.3719017 230,89.9938033 C229.934394,97.6219017 229.898608,105.25 229.642147,112.394758 C229.4334,119.545713 229.111332,126.219525 228.723658,131.939049 C228.007952,143.378098 227,151 227,151 C227,151 225.986083,143.378098 225.270378,131.939049 C224.882704,126.219525 224.5666,119.545713 224.351889,112.394758 C224.101392,105.25 224.059642,97.6219017 224,89.9938033 C224.059642,82.3719017 224.107356,74.75 224.363817,67.5990451 C224.578529,60.4480902 224.900596,53.7804754 225.282306,48.0609508 C225.992048,36.6219017 227,29 227,29" id="Fill-28" fill="#37ADD7"></path>
                <path d="M172.005964,37 C172.005964,37 173.001988,44.8719057 173.717694,56.6859528 C174.105368,62.5898821 174.427435,69.4839882 174.636183,76.8669941 C174.892644,84.25 174.940358,92.1219057 175,99.9938114 C174.940358,107.871906 174.898608,115.75 174.648111,123.133006 C174.4334,130.509823 174.117296,137.403929 173.723658,143.314047 C173.013917,155.121906 172.005964,163 172.005964,163 C172.005964,163 170.992048,155.121906 170.276342,143.314047 C169.888668,137.403929 169.5666,130.509823 169.357853,123.133006 C169.101392,115.75 169.065606,107.871906 169,99.9938114 C169.065606,92.1219057 169.11332,84.25 169.363817,76.8669941 C169.578529,69.4839882 169.900596,62.5898821 170.282306,56.6859528 C170.998012,44.8719057 172.005964,37 172.005964,37" id="Fill-29" fill="#4296C6"></path>
                <path d="M190.005964,42 C190.005964,42 191.001988,50.0598165 191.717694,62.155675 C192.105368,68.2036042 192.427435,75.2574771 192.636183,82.8204555 C192.892644,90.3773002 192.940358,98.4371166 193,106.496933 C192.940358,114.562883 192.898608,122.6227 192.648111,130.185678 C192.4334,137.742523 192.111332,144.796396 191.723658,150.844325 C191.013917,162.940184 190.005964,171 190.005964,171 C190.005964,171 188.992048,162.940184 188.276342,150.844325 C187.888668,144.796396 187.5666,137.742523 187.357853,130.185678 C187.101392,122.6227 187.065606,114.562883 187,106.496933 C187.065606,98.4371166 187.107356,90.3773002 187.363817,82.8204555 C187.578529,75.2574771 187.900596,68.2036042 188.282306,62.155675 C188.992048,50.0598165 190.005964,42 190.005964,42" id="Fill-30" fill="#409ECC"></path>
                <path d="M210,37 C210,37 211.001988,44.8719057 211.71173,56.6859528 C212.105368,62.5898821 212.427435,69.4839882 212.636183,76.8669941 C212.892644,84.25 212.940358,92.1219057 213,99.9938114 C212.940358,107.871906 212.898608,115.75 212.642147,123.133006 C212.4334,130.509823 212.111332,137.403929 211.723658,143.314047 C211.007952,155.121906 210,163 210,163 C210,163 208.992048,155.121906 208.276342,143.314047 C207.888668,137.403929 207.5666,130.509823 207.357853,123.133006 C207.101392,115.75 207.059642,107.871906 207,99.9938114 C207.059642,92.1219057 207.107356,84.25 207.363817,76.8669941 C207.578529,69.4839882 207.900596,62.5898821 208.282306,56.6859528 C208.992048,44.8719057 210,37 210,37" id="Fill-31" fill="#3BA7D2"></path>
            </g>
        </g>
    </g>
</svg>