<?xml version="1.0" encoding="UTF-8"?>
<svg width="961px" height="841px" viewBox="0 0 961 841" version="1.1" xmlns="http://www.w3.org/2000/svg" xmlns:xlink="http://www.w3.org/1999/xlink">
    <!-- Generator: Sketch 51.3 (57544) - http://www.bohemiancoding.com/sketch -->
    <title>shutterstock_516779041</title>
    <desc>Created with Sketch.</desc>
    <defs></defs>
    <g id="shutterstock_516779041" stroke="none" stroke-width="1" fill="none" fill-rule="evenodd">
        <path d="M226.12,0.931 C212.097,0.643 197.8,4.061 184.779,11.61 C146.902,33.574 133.955,82.152 155.919,120.03 C177.883,157.906 226.403,170.736 264.28,148.771 C268.799,146.152 272.971,143.145 276.76,139.833 L374.441,212.252 C357.241,241.1 349.836,275.118 353.921,308.672 L151.779,359.072 C150.753,356.858 149.609,354.69 148.359,352.534 C133.945,327.676 108.11,313.544 81.338,312.992 C67.315,312.704 53.078,316.183 40.058,323.732 C2.181,345.696 -10.766,394.16 11.198,432.034 C33.162,469.914 81.742,482.798 119.619,460.834 C145.53,445.81 159.68,418.358 159.039,390.395 L361.241,339.994 C364.344,348.889 368.348,357.594 373.241,366.034 C388.131,391.712 409.478,411.358 434.082,424.174 L334.961,682.718 C329.671,681.773 324.295,681.366 318.881,681.518 C306.102,681.872 293.157,685.334 281.32,692.196 C243.443,714.164 230.556,762.742 252.52,800.618 C274.484,838.496 323.004,851.321 360.881,829.357 C398.759,807.394 411.645,758.936 389.682,721.058 C383.334,710.109 374.777,701.258 364.901,694.718 L464.022,435.936 C501.942,446.414 543.855,442.38 580.423,421.174 C597.223,411.433 611.422,398.895 622.844,384.515 L807.705,504.454 C798.9,526.332 799.875,551.887 812.626,573.876 C834.59,611.756 883.109,624.702 920.986,602.736 C958.863,580.774 971.751,532.25 949.787,494.374 C934.687,468.334 907.04,454.112 878.927,454.897 C866.148,455.252 853.263,458.71 841.426,465.574 C835.508,469.008 830.185,473.05 825.525,477.634 L640.064,357.334 C660.191,316.542 661.794,267.377 640.964,224.192 L739.545,165.032 C763.977,193.15 805.66,200.914 839.086,181.532 C876.963,159.57 889.851,111.046 867.887,73.17 C852.786,47.128 825.139,32.908 797.025,33.69 C784.246,34.048 771.362,37.506 759.525,44.371 C726.764,63.366 712.75,102.225 723.765,136.893 L623.924,196.832 C578.166,138.086 494.545,120.604 428.382,158.972 C415.227,166.6 403.654,175.924 393.762,186.512 L296.141,114.152 C306.889,91.388 306.668,63.902 293.08,40.47 C278.666,15.614 252.892,1.479 226.12,0.931 Z M506.623,177.872 C544.419,178.601 580.795,198.526 601.243,233.792 C632.404,287.528 614.36,355.874 560.623,387.034 C506.887,418.194 438.603,399.912 407.441,346.174 C376.281,292.438 394.445,224.274 448.182,193.112 C466.654,182.4 486.824,177.49 506.623,177.872 Z" id="Fill-1" fill="#61649E"></path>
    </g>
</svg>