<?xml version="1.0" encoding="UTF-8"?>
<svg width="430px" height="432px" viewBox="0 0 430 432" version="1.1" xmlns="http://www.w3.org/2000/svg" xmlns:xlink="http://www.w3.org/1999/xlink">
    <!-- Generator: Sketch 51.3 (57544) - http://www.bohemiancoding.com/sketch -->
    <title>Group</title>
    <desc>Created with Sketch.</desc>
    <defs></defs>
    <g id="Page-1" stroke="none" stroke-width="1" fill="none" fill-rule="evenodd">
        <g id="shutterstock_1372042769" transform="translate(-285.000000, -284.000000)" fill="#6C5996">
            <g id="Group" transform="translate(285.000000, 284.000000)">
                <path d="M391.593,213.032 C362.268,313.34 302.859,379.848 215,410.758 C127.314,379.91 67.965,313.596 38.575,213.604 C20.854,153.313 19.872,97.994 20.271,76.98 C47.092,75.423 125.936,67.083 215,22.546 C304.071,67.087 382.92,75.424 409.736,76.98 C410.146,97.901 409.191,152.835 391.593,213.032 Z M429.357,66.634 L428.703,57.369 L419.415,57.338 C418.482,57.335 324.941,56.403 219.558,2.438 L215,0.103 L210.442,2.438 C105.326,56.267 11.513,57.333 10.585,57.338 L1.297,57.369 L0.643,66.634 C0.438,69.545 -4.12,138.84 19.211,218.644 C32.993,265.785 53.708,306.697 80.784,340.243 C114.795,382.384 158.871,412.854 211.787,430.808 L215,431.897 L218.213,430.808 C271.129,412.854 315.205,382.384 349.216,340.243 C376.292,306.697 397.007,265.785 410.789,218.644 C434.12,138.84 429.563,69.545 429.357,66.634 Z" id="Fill-1"></path>
                <path d="M254,166 L176,166 L176,142 C176,122.701 191.701,107 211,107 L219,107 C238.299,107 254,122.701 254,142 L254,166 Z M229.111,258.677 L200.889,258.677 L209.928,219.688 C203.028,217.53 198.021,211.09 198.021,203.479 C198.021,194.102 205.623,186.5 215,186.5 C224.377,186.5 231.979,194.102 231.979,203.479 C231.979,211.09 226.972,217.531 220.072,219.688 L229.111,258.677 Z M273.511,166 L270,166 L270,142 C270,113.878 247.122,91 219,91 L211,91 C182.878,91 160,113.878 160,142 L160,166 L156.49,166 C149.31,166 143.49,171.82 143.49,179 L143.49,269 C143.49,276.18 149.31,282 156.49,282 L273.511,282 C280.69,282 286.511,276.18 286.511,269 L286.511,179 C286.511,171.82 280.69,166 273.511,166 Z" id="Fill-2"></path>
            </g>
        </g>
    </g>
</svg>